<svg xmlns="http://www.w3.org/2000/svg" viewBox="0 0 200 200" width="200" height="200">
  <!-- Background -->
  <rect width="200" height="200" fill="#f0f8ff"/>
  
  <!-- Doctor's Head -->
  <circle cx="100" cy="70" r="40" fill="#ffd699"/>
  
  <!-- Doctor's Hair -->
  <path d="M60 60 Q 100 10 140 60" fill="#8B4513"/>
  <path d="M60 60 Q 80 40 100 60" fill="#8B4513"/>
  
  <!-- Doctor's Face -->
  <circle cx="85" cy="65" r="5" fill="#000"/> <!-- Left Eye -->
  <circle cx="115" cy="65" r="5" fill="#000"/> <!-- Right Eye -->
  <path d="M90 85 Q 100 95 110 85" fill="none" stroke="#000" stroke-width="2"/> <!-- Smile -->
  
  <!-- Doctor's Body/Coat -->
  <rect x="70" y="110" width="60" height="90" fill="#ffffff"/>
  <rect x="70" y="110" width="60" height="20" fill="#9370DB"/> <!-- Collar -->
  
  <!-- Stethoscope -->
  <path d="M85 130 Q 70 150 85 170" fill="none" stroke="#000" stroke-width="3"/>
  <circle cx="85" cy="170" r="5" fill="#000"/>
  
  <!-- Name Tag -->
  <rect x="110" y="130" width="15" height="10" fill="#ff0000"/>
  
  <!-- Doctor's Arms -->
  <rect x="50" y="110" width="20" height="60" fill="#ffffff" rx="10"/>
  <rect x="130" y="110" width="20" height="60" fill="#ffffff" rx="10"/>
  
  <!-- Glasses -->
  <rect x="75" y="60" width="20" height="10" rx="5" fill="none" stroke="#000" stroke-width="2"/>
  <rect x="105" y="60" width="20" height="10" rx="5" fill="none" stroke="#000" stroke-width="2"/>
  <line x1="95" y1="65" x2="105" y2="65" stroke="#000" stroke-width="2"/>
</svg>