<svg xmlns="http://www.w3.org/2000/svg" viewBox="0 0 200 200" width="200" height="200">
  <!-- Background -->
  <rect width="200" height="200" fill="#f0f8ff"/>
  
  <!-- Doctor's Head -->
  <circle cx="100" cy="70" r="40" fill="#f5d0a9"/>
  
  <!-- Doctor's Hair -->
  <path d="M60 50 Q 100 20 140 50" fill="#000000"/>
  <path d="M140 50 Q 130 90 140 70" fill="#000000"/>
  
  <!-- Doctor's Face -->
  <circle cx="85" cy="65" r="5" fill="#000"/> <!-- Left Eye -->
  <circle cx="115" cy="65" r="5" fill="#000"/> <!-- Right Eye -->
  <path d="M90 85 Q 100 95 110 85" fill="none" stroke="#000" stroke-width="2"/> <!-- Smile -->
  
  <!-- Doctor's Body/Coat -->
  <rect x="70" y="110" width="60" height="90" fill="#ffffff"/>
  <rect x="70" y="110" width="60" height="20" fill="#20B2AA"/> <!-- Collar -->
  
  <!-- Stethoscope -->
  <path d="M85 130 Q 70 150 85 170" fill="none" stroke="#000" stroke-width="3"/>
  <circle cx="85" cy="170" r="5" fill="#000"/>
  
  <!-- Name Tag -->
  <rect x="110" y="130" width="15" height="10" fill="#ff0000"/>
  
  <!-- Doctor's Arms -->
  <rect x="50" y="110" width="20" height="60" fill="#ffffff" rx="10"/>
  <rect x="130" y="110" width="20" height="60" fill="#ffffff" rx="10"/>
  
  <!-- Facial Hair (Beard) -->
  <path d="M80 90 Q 100 110 120 90 Q 110 100 100 100 Q 90 100 80 90" fill="#000000"/>
</svg>