<svg xmlns="http://www.w3.org/2000/svg" viewBox="0 0 200 200" width="200" height="200">
  <!-- Background -->
  <rect width="200" height="200" fill="#f0f8ff" rx="10" ry="10"/>
  
  <!-- Hospital Bed -->
  <rect x="40" y="120" width="120" height="40" fill="#ffffff" stroke="#4682B4" stroke-width="3" rx="5" ry="5"/>
  <rect x="40" y="160" width="120" height="10" fill="#4682B4"/>
  
  <!-- Bed Legs -->
  <rect x="50" y="170" width="10" height="20" fill="#4682B4"/>
  <rect x="140" y="170" width="10" height="20" fill="#4682B4"/>
  
  <!-- Pillow -->
  <rect x="50" y="125" width="30" height="20" fill="#e6e6fa" rx="5" ry="5"/>
  
  <!-- Patient -->
  <rect x="50" y="125" width="100" height="30" fill="#add8e6" rx="10" ry="10"/>
  <circle cx="90" cy="140" r="15" fill="#f5d0a9"/> <!-- Head -->
  
  <!-- Heart Monitor -->
  <rect x="20" y="40" width="60" height="40" fill="#ffffff" stroke="#000" stroke-width="2"/>
  
  <!-- Monitor Screen -->
  <rect x="25" y="45" width="50" height="30" fill="#000"/>
  
  <!-- Heart Rate Line -->
  <polyline points="25,60 35,60 40,40 45,80 50,60 55,60 65,60 70,60" fill="none" stroke="#00ff00" stroke-width="2"/>
  
  <!-- Monitor Stand -->
  <rect x="45" y="80" width="10" height="40" fill="#808080"/>
  
  <!-- IV Drip -->
  <rect x="140" y="40" width="20" height="30" fill="#ffffff" stroke="#000" stroke-width="2"/>
  <line x1="150" y1="70" x2="150" y2="120" stroke="#000" stroke-width="2"/>
  <path d="M150 70 L 140 90 L 160 90 Z" fill="#ffffff" stroke="#000" stroke-width="2"/>
  
  <!-- IV Bag -->
  <rect x="130" y="10" width="40" height="30" fill="#ffffff" stroke="#000" stroke-width="2" rx="5" ry="5"/>
  <line x1="150" y1="40" x2="150" y2="40" stroke="#000" stroke-width="2"/>
  
  <!-- Oxygen Mask -->
  <path d="M90 125 Q 80 115 90 105 Q 100 115 90 125" fill="#ffffff" stroke="#000" stroke-width="2"/>
  <line x1="90" y1="105" x2="70" y2="90" stroke="#000" stroke-width="2"/>
</svg>