<svg xmlns="http://www.w3.org/2000/svg" viewBox="0 0 200 200" width="200" height="200">
  <!-- Background -->
  <rect width="200" height="200" fill="#f0f8ff" rx="10" ry="10"/>
  
  <!-- Operating Table -->
  <rect x="50" y="100" width="100" height="40" fill="#ffffff" stroke="#4682B4" stroke-width="3" rx="5" ry="5"/>
  <rect x="50" y="140" width="100" height="10" fill="#4682B4"/>
  
  <!-- Table Legs -->
  <rect x="60" y="150" width="10" height="30" fill="#4682B4"/>
  <rect x="130" y="150" width="10" height="30" fill="#4682B4"/>
  
  <!-- Patient on Table -->
  <rect x="60" y="105" width="80" height="30" fill="#add8e6" rx="10" ry="10"/>
  <circle cx="80" cy="120" r="10" fill="#f5d0a9"/> <!-- Head -->
  
  <!-- Surgeon -->
  <circle cx="40" cy="70" r="20" fill="#e6c6a0"/> <!-- Head -->
  <rect x="30" y="90" width="20" height="40" fill="#4682B4"/> <!-- Body -->
  
  <!-- Surgeon's Face (with mask) -->
  <rect x="30" y="70" width="20" height="10" fill="#ffffff" rx="5" ry="5"/> <!-- Mask -->
  <circle cx="35" cy="65" r="3" fill="#000"/> <!-- Left Eye -->
  <circle cx="45" cy="65" r="3" fill="#000"/> <!-- Right Eye -->
  
  <!-- Surgeon's Arms -->
  <rect x="20" y="90" width="10" height="30" fill="#4682B4" rx="5" ry="5"/> <!-- Left Arm -->
  <rect x="50" y="90" width="10" height="30" fill="#4682B4" rx="5" ry="5"/> <!-- Right Arm -->
  
  <!-- Assistant Surgeon -->
  <circle cx="160" cy="70" r="20" fill="#e6c6a0"/> <!-- Head -->
  <rect x="150" y="90" width="20" height="40" fill="#4682B4"/> <!-- Body -->
  
  <!-- Assistant's Face (with mask) -->
  <rect x="150" y="70" width="20" height="10" fill="#ffffff" rx="5" ry="5"/> <!-- Mask -->
  <circle cx="155" cy="65" r="3" fill="#000"/> <!-- Left Eye -->
  <circle cx="165" cy="65" r="3" fill="#000"/> <!-- Right Eye -->
  
  <!-- Assistant's Arms -->
  <rect x="140" y="90" width="10" height="30" fill="#4682B4" rx="5" ry="5"/> <!-- Left Arm -->
  <rect x="170" y="90" width="10" height="30" fill="#4682B4" rx="5" ry="5"/> <!-- Right Arm -->
  
  <!-- Surgical Light -->
  <path d="M100 10 L 80 40 L 120 40 Z" fill="#ffffff" stroke="#000" stroke-width="2"/>
  <line x1="100" y1="40" x2="100" y2="60" stroke="#000" stroke-width="2"/>
  <circle cx="100" cy="60" r="15" fill="#ffff00" opacity="0.7"/>
  
  <!-- Surgical Tools -->
  <rect x="20" y="20" width="30" height="10" fill="#c0c0c0" rx="2" ry="2"/>
  <line x1="25" y1="20" x2="25" y2="30" stroke="#808080" stroke-width="1"/>
  <line x1="35" y1="20" x2="35" y2="30" stroke="#808080" stroke-width="1"/>
  <line x1="45" y1="20" x2="45" y2="30" stroke="#808080" stroke-width="1"/>
  
  <!-- Scalpel -->
  <line x1="140" y1="20" x2="160" y2="30" stroke="#c0c0c0" stroke-width="2"/>
  <path d="M160 30 L 170 25 L 165 35 Z" fill="#c0c0c0"/>
  
  <!-- Monitor -->
  <rect x="20" y="170" width="30" height="20" fill="#000" rx="2" ry="2"/>
  <polyline points="25,180 30,175 35,185 40,180 45,180" fill="none" stroke="#00ff00" stroke-width="1"/>
</svg>