<svg xmlns="http://www.w3.org/2000/svg" viewBox="0 0 200 200" width="200" height="200">
  <!-- Background -->
  <circle cx="100" cy="100" r="100" fill="#f0f8ff"/>
  
  <!-- Patient's Head -->
  <circle cx="100" cy="80" r="40" fill="#e6c6a0"/>
  
  <!-- Patient's Hair -->
  <path d="M60 60 Q 100 20 140 60" fill="#000000"/>
  <path d="M140 60 Q 130 100 140 80" fill="#000000"/>
  
  <!-- Patient's Face -->
  <circle cx="85" cy="75" r="5" fill="#000"/> <!-- Left Eye -->
  <circle cx="115" cy="75" r="5" fill="#000"/> <!-- Right Eye -->
  <path d="M90 95 Q 100 105 110 95" fill="none" stroke="#000" stroke-width="2"/> <!-- Smile -->
  
  <!-- Patient's Body -->
  <path d="M70 120 Q 100 140 130 120 L 130 180 L 70 180 Z" fill="#4682B4"/>
  
  <!-- Patient's Neck -->
  <rect x="90" y="110" width="20" height="15" fill="#e6c6a0"/>
  
  <!-- Patient's Arms -->
  <rect x="50" y="120" width="20" height="60" fill="#e6c6a0" rx="10"/>
  <rect x="130" y="120" width="20" height="60" fill="#e6c6a0" rx="10"/>
  
  <!-- Glasses -->
  <rect x="75" y="70" width="20" height="10" rx="5" fill="none" stroke="#000" stroke-width="2"/>
  <rect x="105" y="70" width="20" height="10" rx="5" fill="none" stroke="#000" stroke-width="2"/>
  <line x1="95" y1="75" x2="105" y2="75" stroke="#000" stroke-width="2"/>
  
  <!-- Beard -->
  <path d="M80 100 Q 100 120 120 100 Q 110 110 100 110 Q 90 110 80 100" fill="#000000"/>
</svg>